HIERARCHY
ROOT Hips
{
	OFFSET 0.000000 0.000000 0.000000
	CHANNELS 6 Xposition Yposition Zposition Zrotation Yrotation Xrotation 
	JOINT LHipJoint
	{
		OFFSET 0.000000 0.000000 0.000000
		CHANNELS 3 Zrotation Yrotation Xrotation
		JOINT LeftUpLeg
		{
			OFFSET 1.363060 -1.794630 0.839290
			CHANNELS 3 Zrotation Yrotation Xrotation
			JOINT LeftLeg
			{
				OFFSET 2.448110 -6.726130 0.000000
				CHANNELS 3 Zrotation Yrotation Xrotation
				JOINT LeftFoot
				{
					OFFSET 2.562200 -7.039590 0.000000
					CHANNELS 3 Zrotation Yrotation Xrotation
					JOINT LeftToeBase
					{
						OFFSET 0.157640 -0.433110 2.322550
						CHANNELS 3 Zrotation Yrotation Xrotation
						End Site
						{
							OFFSET 0.000000 0.000000 0.000000
						}
					}
				}
			}
		}
	}
	JOINT RHipJoint
	{
		OFFSET 0.000000 0.000000 0.000000
		CHANNELS 3 Zrotation Yrotation Xrotation
		JOINT RightUpLeg
		{
			OFFSET -1.305520 -1.794630 0.839290
			CHANNELS 3 Zrotation Yrotation Xrotation
			JOINT RightLeg
			{
				OFFSET -2.542530 -6.985550 0.000000
				CHANNELS 3 Zrotation Yrotation Xrotation
				JOINT RightFoot
				{
					OFFSET -2.568260 -7.056230 0.000000
					CHANNELS 3 Zrotation Yrotation Xrotation
					JOINT RightToeBase
					{
						OFFSET -0.164730 -0.452590 2.363150
						CHANNELS 3 Zrotation Yrotation Xrotation
						End Site
						{
							OFFSET 0.000000 0.000000 0.000000
						}
					}
				}
			}
		}
	}
	JOINT LowerBack
	{
		OFFSET 0.000000 0.000000 0.000000
		CHANNELS 3 Zrotation Yrotation Xrotation
		JOINT Spine
		{
			OFFSET 0.028270 2.035590 -0.193380
			CHANNELS 3 Zrotation Yrotation Xrotation
			JOINT Spine1
			{
				OFFSET 0.056720 2.048850 -0.042750
				CHANNELS 3 Zrotation Yrotation Xrotation
				JOINT Neck
				{
					OFFSET 0.000000 0.000000 0.000000
					CHANNELS 3 Zrotation Yrotation Xrotation
					JOINT Neck1
					{
						OFFSET -0.054170 1.746240 0.172020
						CHANNELS 3 Zrotation Yrotation Xrotation
						JOINT Head
						{
							OFFSET 0.104070 1.761360 -0.123970
							CHANNELS 3 Zrotation Yrotation Xrotation
							End Site
							{
								OFFSET 0.000000 0.000000 0.000000
							}
						}
					}
				}
				JOINT LeftShoulder
				{
					OFFSET 0.000000 0.000000 0.000000
					CHANNELS 3 Zrotation Yrotation Xrotation
					JOINT LeftArm
					{
						OFFSET 3.362410 1.200890 -0.311210
						CHANNELS 3 Zrotation Yrotation Xrotation
						JOINT LeftForeArm
						{
							OFFSET 4.983000 -0.000000 -0.000000
							CHANNELS 3 Zrotation Yrotation Xrotation
							JOINT LeftHand
							{
								OFFSET 3.483560 -0.000000 -0.000000
								CHANNELS 3 Zrotation Yrotation Xrotation
								JOINT LeftFingerBase
								{
									OFFSET 0.000000 0.000000 0.000000
									CHANNELS 3 Zrotation Yrotation Xrotation
									JOINT LeftHandIndex1
									{
										OFFSET 0.715260 -0.000000 -0.000000
										CHANNELS 3 Zrotation Yrotation Xrotation
										End Site
										{
											OFFSET 0.000000 0.000000 0.000000
										}
									}
								}
								JOINT LThumb
								{
									OFFSET 0.000000 0.000000 0.000000
									CHANNELS 3 Zrotation Yrotation Xrotation
									End Site
									{
										OFFSET 0.000000 0.000000 0.000000
									}
								}
							}
						}
					}
				}
				JOINT RightShoulder
				{
					OFFSET 0.000000 0.000000 0.000000
					CHANNELS 3 Zrotation Yrotation Xrotation
					JOINT RightArm
					{
						OFFSET -3.136600 1.374050 -0.404650
						CHANNELS 3 Zrotation Yrotation Xrotation
						JOINT RightForeArm
						{
							OFFSET -5.241900 -0.000000 -0.000000
							CHANNELS 3 Zrotation Yrotation Xrotation
							JOINT RightHand
							{
								OFFSET -3.444170 -0.000000 -0.000000
								CHANNELS 3 Zrotation Yrotation Xrotation
								JOINT RightFingerBase
								{
									OFFSET 0.000000 0.000000 0.000000
									CHANNELS 3 Zrotation Yrotation Xrotation
									JOINT RightHandIndex1
									{
										OFFSET -0.622530 -0.000000 -0.000000
										CHANNELS 3 Zrotation Yrotation Xrotation
										End Site
										{
											OFFSET 0.000000 0.000000 0.000000
										}
									}
								}
								JOINT RThumb
								{
									OFFSET 0.000000 0.000000 0.000000
									CHANNELS 3 Zrotation Yrotation Xrotation
									End Site
									{
										OFFSET 0.000000 0.000000 0.000000
									}
								}
							}
						}
					}
				}
			}
		}
	}
}
MOTION
Frames: 12
Frame Time: 0.008333
0.770051 18.778500 9.027294 -10.220163 5.533391 27.906849 5.512452 3.362491 2.938779 12.156028 -60.202245 -10.772330 -2.783314 -3.582152 -6.030337 -6.866771 37.726184 -47.513391 4.876300 13.243100 40.285500 0.138088 -2.659275 2.833203 9.508018 41.221115 -18.427786 3.350384 0.792228 -2.917710 11.979560 -35.773239 -10.269834 -1.122900 -6.731000 18.920800 -0.542257 0.296610 -0.107741 22.407014 -5.230066 32.151620 -4.562482 -1.242729 -17.096148 -6.607382 -4.390558 -31.062724 11.233574 -2.831396 -9.217158 2.234600 -1.854400 1.366300 2.210253 -8.006572 4.580854 73.547210 -47.345908 -170.399051 1.639344 -8.121540 2.542467 -0.408178 6.306696 86.430562 48.558048 -19.543565 -22.982600 -7.125000 0.000000 0.000000 16.626300 2.466900 -16.619800 -1.036204 8.914316 2.846263 -85.872677 52.442803 -135.082243 -3.467077 16.730070 1.318624 2.461066 3.022727 68.770728 -23.049066 -35.701609 14.047200 7.125000 0.000000 0.000000 22.185100 -70.872200 -13.907600 
0.776898 18.773338 9.020131 -10.051944 5.685479 28.149825 5.494602 3.309447 2.950094 12.461828 -60.276295 -11.135668 -2.753220 -3.640181 -6.196506 -6.523764 37.034921 -47.607179 5.075400 13.468200 41.147600 0.102167 -2.602990 2.818450 9.220805 41.018876 -18.757719 3.346531 0.788344 -2.964406 11.961124 -35.720601 -10.335161 -1.158500 -6.833300 19.222400 -0.466639 0.360258 0.036554 22.237537 -5.117900 32.213614 -4.600124 -1.197104 -17.256060 -6.338461 -4.410068 -31.080473 11.019712 -2.927238 -9.218975 2.135300 -1.902400 1.370400 2.245108 -8.031225 4.439142 73.705059 -47.160444 -170.150352 1.613001 -8.124422 2.530848 -0.527372 6.262405 86.018264 48.104312 -19.216072 -22.214300 -7.125000 0.000000 0.000000 16.445300 3.213500 -16.189800 -1.082259 8.987838 2.815449 -85.176092 52.010990 -134.281559 -3.613617 16.773445 1.224667 2.434750 2.933969 69.014836 -22.797307 -35.870714 13.927100 7.125000 0.000000 0.000000 22.544700 -70.866500 -14.137500 
0.784272 18.770599 9.015707 -9.877669 5.912130 28.409678 5.501774 3.231898 2.935242 12.769814 -60.401888 -11.514679 -2.723409 -3.686062 -6.311831 -6.100266 36.195948 -47.767572 5.311300 13.726100 42.151000 0.098235 -2.565798 2.800464 8.933975 40.768704 -19.087144 3.342321 0.784466 -3.035019 12.005813 -35.839221 -10.329496 -1.158400 -6.833000 19.221500 -0.628568 0.362525 0.135022 22.396370 -5.168202 32.129137 -4.537802 -1.197263 -17.342433 -6.348398 -4.346676 -30.551211 11.069859 -2.852763 -9.604755 2.162300 -1.893200 1.229600 2.299133 -8.095900 4.407201 73.507386 -46.893760 -169.625881 1.619167 -8.115695 2.479956 -0.626153 6.209771 85.624811 47.965724 -18.661254 -21.449500 -7.125000 0.000000 0.000000 16.490200 4.095400 -15.958800 -1.171531 9.053558 2.646815 -85.824758 51.725514 -139.309121 -3.117384 15.815182 1.401145 2.669327 2.764914 73.107540 -23.108946 -35.149175 13.945800 7.125000 0.000000 0.000000 21.113900 -70.359500 -12.979200 
0.792489 18.768598 9.011072 -9.751663 6.170811 28.699104 5.549718 3.138731 2.905694 13.219628 -60.517791 -12.073281 -2.690073 -3.692757 -6.396283 -5.917787 35.804963 -47.812149 5.415600 13.837100 42.588800 0.108220 -2.519909 2.773058 8.675317 40.516366 -19.445627 3.337141 0.775808 -3.108194 12.061167 -36.000391 -10.301507 -1.123800 -6.733900 18.929300 -0.845562 0.337673 0.225580 22.748691 -5.261359 31.852294 -4.472954 -1.245810 -17.397373 -5.824005 -4.115910 -29.745950 10.318661 -2.702677 -9.965999 1.917000 -1.846900 1.029000 2.258789 -8.078267 4.397251 73.283700 -46.732273 -169.344355 1.632013 -8.089142 2.451773 -0.601463 6.202715 85.675511 48.092485 -18.553597 -21.442400 -7.125000 0.000000 0.000000 16.578500 4.154100 -16.033300 -1.246062 9.093282 2.618501 -85.606959 51.532969 -138.849322 -3.185334 15.921874 1.346594 2.641444 2.754757 72.875001 -22.951045 -35.112257 13.824600 7.125000 0.000000 0.000000 21.184100 -70.244700 -12.970200 
0.799652 18.766702 9.006437 -9.652431 6.368440 28.928053 5.564180 3.076074 2.903400 13.718747 -60.611991 -12.671854 -2.656023 -3.670352 -6.474936 -5.988176 35.915628 -47.749053 5.389000 13.809000 42.477500 0.071598 -2.463135 2.744749 8.536932 40.301138 -19.708964 3.336567 0.773588 -3.151460 12.062864 -36.014702 -10.311976 -1.105500 -6.680600 18.772500 -0.715663 0.331508 0.372822 22.623194 -5.261216 31.943325 -4.371358 -1.254545 -17.502529 -4.989478 -4.160285 -30.766212 9.166191 -2.960900 -8.947389 1.515100 -1.895300 1.376700 2.233587 -8.023771 4.298262 73.291824 -46.461270 -169.358724 1.631476 -8.104105 2.451628 -0.595123 6.200283 85.979716 48.281860 -18.328493 -21.286300 -7.125000 0.000000 0.000000 16.752500 4.427600 -16.128400 -1.349361 9.232236 2.624007 -84.852510 51.060745 -136.042709 -3.480299 16.310717 1.199330 2.515990 2.755762 70.913026 -22.774419 -35.419647 13.812895 7.125000 0.000000 0.000000 21.644900 -70.405900 -13.337700 
0.805867 18.764911 9.003487 -9.640814 6.578517 29.096847 5.587189 3.025549 2.900146 14.189152 -60.684642 -13.155450 -2.627239 -3.651674 -6.542005 -6.086827 36.095745 -47.695173 5.371500 13.790300 42.404000 0.048260 -2.424014 2.728342 8.504530 40.126227 -19.910422 3.339021 0.775744 -3.183528 12.022663 -35.924272 -10.379222 -1.129500 -6.750300 18.977700 -0.595179 0.398641 0.472174 22.707399 -5.209392 31.983155 -4.371233 -1.222366 -17.516861 -4.640060 -4.192544 -31.166221 8.424372 -3.097989 -8.585316 1.278800 -1.936300 1.510500 2.234709 -8.039485 4.196670 73.493241 -46.288284 -169.957998 1.606545 -8.107478 2.470303 -0.650863 6.188033 86.356677 48.287477 -17.859341 -20.647000 -7.125000 0.000000 0.000000 16.898500 5.221600 -16.019200 -1.451250 9.325961 2.599215 -84.256113 50.619115 -134.440283 -3.616949 16.388814 1.130539 2.455624 2.732254 69.970503 -22.635749 -35.700357 13.815700 7.125000 0.000000 0.000000 22.091000 -70.575200 -13.703300 
0.812083 18.762172 9.001696 -9.682124 6.788909 29.266797 5.622612 2.967874 2.886800 14.664746 -60.726203 -13.613089 -2.600481 -3.626253 -6.576341 -6.139390 36.184423 -47.667900 5.368500 13.787100 42.391200 0.038192 -2.393820 2.713288 8.495136 39.984592 -20.113017 3.339948 0.777155 -3.221828 11.985313 -35.853346 -10.411343 -1.153900 -6.820200 19.183800 -0.563686 0.472716 0.572024 22.974257 -5.189710 31.938987 -4.370924 -1.193215 -17.476002 -4.546917 -4.188789 -31.134217 8.100392 -3.115402 -8.742380 1.184200 -1.952700 1.475400 2.250209 -8.080195 4.117145 73.589033 -46.089436 -170.394782 1.585135 -8.101067 2.472583 -0.651505 6.181446 86.599684 48.130199 -17.764780 -20.406000 -7.125000 0.000000 0.000000 16.833900 5.455400 -15.874100 -1.545039 9.387300 2.551972 -83.837232 50.218212 -132.995992 -3.738889 16.498760 1.073401 2.399806 2.728298 69.133844 -22.423278 -35.999822 13.759000 7.125000 0.000000 0.000000 22.714100 -70.738700 -14.183900 
0.819456 18.758906 9.001170 -9.655224 6.994830 29.423096 5.670759 2.905927 2.851970 14.960663 -60.796230 -13.955228 -2.581785 -3.617097 -6.609954 -6.130689 36.140482 -47.640103 5.383900 13.803500 42.455900 0.060437 -2.385896 2.696564 8.403114 39.810551 -20.265791 3.338459 0.785256 -3.282241 11.962620 -35.805485 -10.375736 -1.168300 -6.861200 19.304900 -0.783600 0.462475 0.731959 23.383925 -5.279917 31.642151 -4.300645 -1.234649 -17.514309 -4.116494 -3.997864 -30.328571 7.557127 -2.975819 -9.335434 1.013500 -1.921500 1.220700 2.201489 -8.059779 4.141951 73.346587 -45.994671 -170.037288 1.605853 -8.114575 2.437798 -0.552577 6.181554 86.864807 48.038207 -18.030520 -20.730200 -7.125000 0.000000 0.000000 16.686600 5.011900 -15.868100 -1.605602 9.413322 2.515037 -83.496041 50.031811 -130.492245 -3.966812 16.872935 0.984937 2.297262 2.781514 67.156274 -22.256603 -36.367426 13.752600 7.125000 0.000000 0.000000 23.437800 -70.989500 -14.779600 
0.827989 18.755957 9.002223 -9.599596 7.197027 29.565439 5.723286 2.849289 2.807909 15.147270 -60.882367 -14.211047 -2.568682 -3.618170 -6.645714 -6.113990 36.065042 -47.589973 5.422900 13.844800 42.619100 0.098707 -2.386978 2.678988 8.273711 39.619345 -20.380542 3.338238 0.807980 -3.368826 11.925033 -35.702747 -10.420285 -1.222200 -7.012200 19.751500 -1.089686 0.369272 0.930416 23.751609 -5.425574 31.169922 -4.258686 -1.343324 -17.702325 -3.460042 -3.715080 -29.045316 7.034726 -2.773310 -9.939366 0.836700 -1.860100 0.899900 2.108049 -7.995960 4.272784 72.944381 -46.136788 -168.432379 1.655864 -8.156679 2.373549 -0.528521 6.153642 86.192263 47.783481 -18.377063 -21.058600 -7.125000 0.000000 0.000000 16.400800 4.482500 -15.741100 -1.635376 9.416395 2.454738 -83.945712 50.106371 -131.579390 -3.797400 16.612228 1.067934 2.340079 2.786345 67.461238 -22.545377 -36.229490 13.927700 7.125000 0.000000 0.000000 22.936900 -71.006900 -14.461700 
0.836101 18.754377 9.004646 -9.575806 7.313222 29.668423 5.710772 2.831267 2.807229 15.350192 -60.922709 -14.402330 -2.551239 -3.623169 -6.696302 -6.061065 35.921464 -47.574319 5.467400 13.891600 42.805000 0.072355 -2.369515 2.664121 8.255736 39.491756 -20.448613 3.341096 0.833237 -3.435149 11.905702 -35.652630 -10.449532 -1.276000 -7.159100 20.187600 -0.911438 0.362616 1.153957 23.601986 -5.425883 31.294842 -4.255877 -1.348815 -17.881684 -3.637122 -3.858758 -30.392106 7.463109 -2.879451 -8.540420 0.941000 -1.825800 1.412000 2.147044 -7.989806 4.248213 72.984779 -46.017304 -167.416666 1.647646 -8.212866 2.352006 -0.666284 6.108940 85.007071 47.368409 -18.378633 -20.765900 -7.125000 0.000000 0.000000 16.139000 4.662800 -15.410800 -1.676855 9.515478 2.397799 -83.834022 49.711484 -131.272123 -3.791678 16.483074 1.059874 2.345580 2.738744 67.409268 -22.686898 -36.188774 14.041500 7.125000 0.000000 0.000000 22.600900 -71.014300 -14.246700 
0.844107 18.753534 9.008965 -9.591814 7.415949 29.772622 5.716559 2.810801 2.792954 15.461372 -60.908885 -14.449603 -2.538109 -3.667179 -6.782506 -5.860456 35.479286 -47.630099 5.579900 14.008500 43.271500 0.071529 -2.362770 2.654052 8.237048 39.426720 -20.546845 3.339370 0.835457 -3.474102 11.930731 -35.737693 -10.394832 -1.267200 -7.135200 20.116400 -0.926691 0.379605 1.296714 23.731936 -5.421828 31.174584 -4.319635 -1.355121 -17.998823 -4.200224 -3.905253 -30.729357 8.163119 -2.802307 -7.894077 1.175800 -1.748500 1.627600 2.155835 -8.002888 4.278615 72.996307 -46.060682 -166.344258 1.653921 -8.264634 2.347796 -0.805509 6.082131 83.915747 47.411003 -18.241418 -20.611600 -7.125000 0.000000 0.000000 16.197400 4.870700 -15.405700 -1.656170 9.510979 2.400748 -83.862444 49.693330 -131.498251 -3.775080 16.435183 1.062267 2.364272 2.713277 67.686058 -22.841693 -36.050558 14.120696 7.125000 0.000000 0.000000 22.167900 -70.948500 -13.933500 
0.855062 18.749531 9.009913 -10.048001 7.717559 29.711101 5.768723 2.830278 2.762691 15.915092 -60.873974 -14.421704 -2.518387 -3.679291 -6.819697 -5.977759 35.616808 -47.522215 5.565400 13.993600 43.211600 0.087038 -2.384473 2.649512 8.894549 39.452916 -20.417844 3.356932 0.858458 -3.498618 11.932647 -35.829322 -10.419245 -1.228300 -7.029000 19.801200 -0.456491 0.352873 1.569408 24.095920 -5.472114 30.974401 -4.615207 -1.456409 -18.063268 -4.753817 -3.947461 -30.838499 8.820360 -2.732231 -7.403892 1.398200 -1.685300 1.777800 2.166672 -8.040079 4.342413 72.815201 -46.013984 -165.263705 1.668911 -8.299252 2.347394 -0.815625 6.102637 83.348768 47.916354 -18.378321 -21.151600 -7.125000 0.000000 0.000000 16.458500 4.411100 -15.824400 -1.642609 9.460556 2.412637 -84.045017 49.770600 -131.996452 -3.779565 16.491012 1.062515 2.382955 2.701824 68.127892 -22.956635 -35.975310 14.176700 7.125000 0.000000 0.000000 21.924700 -70.924300 -13.764300 
